<svg version="1" xmlns="http://www.w3.org/2000/svg" width="293.826" height="79.393" fill="#fff" viewBox="0 0 293.826 79.393"><path d="M33.42 17.06c7.657-2.59 8.24-12.18.692-12.18-2.08 0-4.56 1.458-6.272 4.448l-10.212 17.65c-.474.84-.948 1.533-1.458 2.152-2.626-3.61-1.86-9.007 1.823-11.378L16.46 15.82c-7.95 5.068-5.615 19.692 7.66 19.692 11.342 0 16.593-13.602 9.3-18.452zm-9.373 15.535c-2.26 0-4.048-.51-5.47-1.313.657-.766 1.313-1.714 1.896-2.7l6.382-11.05 1.02.11c8.9 1.86 5.362 14.953-3.828 14.953zM28.13 15.31l3.064-5.252c2.77-4.777 6.31-1.97 4.413 1.604-1.458 2.735-3.61 3.574-7.476 3.647z"/><path d="M65.5 29.32c-.63 2.25.572 4.077 3.145 4.077 1.532 0 3.428-.985 5.25-2.48.184 1.46 1.35 2.48 3.283 2.48 2.02 0 4.235-1.395 6.394-3.358-.42 2.04.54 3.35 2.41 3.35 2.08 0 4.413-1.9 6.236-3.65-.365 2.04.84 3.64 3.246 3.64 3.136 0 6.747-3.354 9.883-7-.025-.05-.07-.1-.1-.15 2.096-2.44 3.945-5.03 5.267-6.78-1.496 3.94-.693 11.015-4.304 11.015-1.276 0-1.787-1.387-1.787-1.387l-2.37 1.24s.692 3.06 4.156 3.06c.36 0 .69-.036 1.05-.07.03 0 .07-.038.11-.038 2.78-.37 5.55-2.065 7.94-4.225.05 2.494 1.99 4.332 5.14 4.332 4.3 0 8.57-3.357 11.705-7.004-.255-.51-.91-1.094-1.42-1.313l-.257.293c-2.733 3.177-6.234 5.69-8.896 5.69-2.334 0-3.72-1.46-1.97-4.52l.366-.654c2.445 1.02 7.04.546 9.885-4.377l.547-.95c2.044-3.5.075-6.127-3.025-6.127-3.062 0-5.506 1.604-7.11 4.375l-3.68 6.32c-.035-.01-.07-.04-.105-.047l-.255.292c-1.38 1.64-3.06 3.1-4.55 4.12 1.203-3.61.948-9.153 3.28-14.004l-2.843-1.53c-1.567 2.153-4.995 7.113-8.423 11.124.03.047.075.092.11.14l-.134.153c-2.737 3.17-5.4 5.69-7.077 5.69-.84 0-1.317-.585-.44-2.08l8.092-14.188h-3.794L93.71 26.56c-2.88 2.624-5.105 4.082-5.835 3.754-.948-.4 0-1.823.474-2.625l7.403-12.91H91.97l-6.037 10.45c-.1-.06-.196-.123-.29-.16l-.253.29c-2.735 3.173-5.397 5.69-7.075 5.69-.833 0-1.31-.583-.433-2.08L84 18.26h-2.153c.146-1.605-1.495-3.83-3.975-3.83-2.042 0-4.887 1.605-6.49 4.376l-3.847 6.637c-.195-.152-.394-.286-.577-.365l-.255.292c-2.735 3.172-6.236 5.69-8.898 5.69-2.334 0-3.72-1.46-1.97-4.523l3.902-6.783c2.188-3.756 6.054-3.136 3.792.802l-.55.948h3.1l.54-.948c2.04-3.5.07-6.127-3.03-6.127-3.068 0-5.51 1.6-7.11 4.37l-3.77 6.46c-.12-.08-.24-.15-.35-.198l-.258.292c-2.736 3.17-6.237 5.687-8.9 5.687-2.333 0-3.72-1.46-1.97-4.52l.366-.655c2.442 1.02 7.04.546 9.882-4.377l.544-.95c2.04-3.5.072-6.126-3.028-6.126-3.066 0-5.51 1.61-7.11 4.38l-3.978 6.82c-2.37 4.05-.328 7.77 4.157 7.77 3.34 0 6.657-2.025 9.442-4.636-.1 2.646 1.863 4.634 5.14 4.634 3.096.004 6.173-1.737 8.825-4.07zm58.028-9.562c2.188-3.756 6.054-3.136 3.792.802l-.547.948c-1.823 3.1-4.267 3.027-5.69 2.516l2.445-4.266zm-54.19 9.227l5.287-9.227c2.042-3.538 6.09-2.626 4.23.802L75.9 25.74c-2.296 3.61-4.558 5.323-6.125 5.323-.84 0-1.313-.583-.438-2.078zm-24.185-9.227c2.188-3.756 6.054-3.136 3.792.802l-.547.948c-1.823 3.1-4.267 3.027-5.69 2.516l2.445-4.266zm128.584 13.64c4.304 0 8.57-3.356 11.706-7.003-.255-.51-.91-1.094-1.422-1.313l-.25.292c-2.73 3.172-6.23 5.69-8.9 5.69-2.33 0-3.72-1.46-1.97-4.523l.37-.65c2.45 1.02 7.04.55 9.89-4.37l.547-.95c2.04-3.5.073-6.122-3.027-6.122-3.065 0-5.51 1.605-7.11 4.376l-3.697 6.336c-.037-.02-.077-.05-.113-.064l-.255.295c-2.736 3.175-5.398 5.69-7.076 5.69-.84 0-1.318-.58-.44-2.08l5.47-9.59c1.64-2.88.07-4.96-2.04-4.96-1.647 0-3.397.91-5.29 2.88l6.05-10.54h-3.792l-10.696 18.56c-.15-.102-.296-.19-.433-.25l-.255.294c-2.734 3.172-5.396 5.69-7.074 5.69-.836 0-1.31-.584-.436-2.08l8.134-14.187h3.1l1.095-1.823h-3.137l3.573-6.2h-3.795l-3.574 6.2h-3.43l-1.09 1.824h3.463L140.2 28c-1.605 2.808-.475 5.397 2.588 5.397 1.885 0 3.94-1.216 5.962-2.975l-1.504 2.61h3.83l5.762-10.03c5.835-7.33 8.424-6.38 6.783-3.573L158.7 28c-1.604 2.808-.475 5.397 2.59 5.397 2.304 0 4.863-1.813 7.303-4.22.113 2.438 2.043 4.22 5.147 4.22zm3.063-13.64c2.188-3.756 6.054-3.136 3.793.802l-.547.948c-1.824 3.1-4.268 3.027-5.69 2.516l2.444-4.266zm111.956 5.325l-.256.292c-2.734 3.172-5.397 5.69-7.074 5.69-.84 0-1.313-.584-.438-2.08l12.837-22.21h-3.793l-5.58 9.63c-.656-1.06-1.896-1.97-3.464-1.97-2.043 0-4.888 1.604-6.492 4.375l-3.71 6.406c-.08-.047-.163-.1-.238-.133l-.256.292c-2.734 3.172-5.396 5.69-7.074 5.69-.84 0-1.313-.584-.438-2.08l5.47-9.59c1.642-2.882.073-4.96-2.042-4.96-1.642 0-3.355.874-5.252 2.844l1.423-2.48h-3.8l-6.06 10.48c-.13-.08-.25-.16-.36-.21l-.26.29c-2.74 3.17-5.4 5.69-7.08 5.69-.84 0-1.31-.586-.435-2.08l6.126-10.724h-2.15c.148-1.603-1.493-3.83-3.973-3.83-2.044 0-4.89 1.607-6.493 4.38l-3.665 6.33-.207.233c-2.736 3.175-5.4 5.69-7.076 5.69-.84 0-1.312-.58-.437-2.08l3.79-6.634c1.31-2.297.69-3.646-.55-5.14l-2.115-2.554c-.547-.694-.547-1.46.22-2.19l-1.97-2.15c-2.15 1.933-2.33 4.084-.983 5.835l.33.44c-1.68 2.37-3.94 5.58-6.42 8.497.074.11.163.217.26.324-3.127 3.593-5.78 5.92-8.765 7.19l4.81-8.24h-3.792l-.4.66c-2.007 3.53-4.305 6.05-7.26 6.05-2.588 0-3.06-2.59-.8-6.457l1.057-1.86c.692.11 1.386.183 2.15.183 13.494 0 20.022-18.053 8.134-18.053-2.078 0-4.558 1.46-6.27 4.45l-5.91 10.174c-2.224-1.17-3.39-3.28-3.39-5.4 0-1.75.802-3.5 2.442-4.78l-1.24-2.222c-2.698 1.932-3.9 4.52-3.9 7.074 0 3.027 1.713 5.944 4.776 7.55l-1.13 1.97c-2.664 4.593-2.19 9.7 3.17 9.7 1.605 0 2.955-.475 4.12-1.205l-.98 1.71c-5.14 1.57-8.314 3.647-8.314 6.49 0 3.65 5.58 4.415 8.312-.253l2.92-4.993c3.94-1.24 7.807-3.94 11.96-8.753-.06-.116-.14-.237-.23-.356 1.683-1.98 3.113-3.887 5.97-7.774l.51.62c.474.62.656 1.388.22 2.154l-4.01 6.97c-1.607 2.808-.477 5.397 2.59 5.397 1.904 0 3.986-1.243 6.03-3.035-.044 1.75 1.15 3.04 3.31 3.04 1.532 0 3.43-.98 5.252-2.48.19 1.46 1.35 2.48 3.29 2.48 1.817 0 3.79-1.13 5.74-2.78l-1.4 2.42h3.83l5.8-10.1c5.8-7.255 8.388-6.31 6.747-3.5L259.5 28c-1.605 2.808-.476 5.397 2.588 5.397 2.016 0 4.226-1.388 6.38-3.346-.2 1.91 1.007 3.35 3.295 3.35 1.53 0 3.428-.98 5.25-2.48.184 1.46 1.35 2.48 3.283 2.48 3.137 0 6.747-3.35 9.883-7-.26-.51-.92-1.09-1.43-1.31zm-77.963-14.15c1.13-1.933 2.37-2.77 3.43-2.77 6.017 0 1.786 12.252-8.134 12.252h-.77l5.47-9.482zm-8.06 28.59c-.8 1.423-2.077 1.205-2.077.184 0-.985.875-2.115 3.793-3.246l-1.72 3.07zm39.694-13.784c-2.298 3.61-4.56 5.32-6.127 5.32-.84 0-1.312-.59-.438-2.08l5.288-9.23c2.042-3.54 6.09-2.63 4.23.8l-2.953 5.18zm36.7-.22c-2.297 3.75-4.63 5.54-6.235 5.54-.84 0-1.312-.59-.438-2.08l5.288-9.23c2.042-3.54 6.09-2.63 4.23.8h.036l-2.88 4.96zM162.05 61.08l-.254.293c-2.735 3.172-5.397 5.688-7.075 5.688-.83 0-1.31-.58-.43-2.08l5.47-9.59c1.64-2.88.08-4.96-2.04-4.96-1.64 0-3.35.88-5.25 2.85l1.42-2.48h-3.79l-6.11 10.57c-.163-.12-.33-.22-.482-.29l-.254.3c-1.71 1.86-3.83 2.77-5.723 2.81l3.573-6.16c2.295-3.974.18-7.73-3.394-7.73-2.916 0-5.177 1.168-7.366 4.96l-1.86 3.246-1.625 2.78c-.118-.075-.235-.145-.344-.192l-.252.295c-3.137 3.61-5.8 5.944-8.79 7.22l10.385-17.8h-3.79l-6.71 11.67c-2.92 2.7-5.18 4.194-5.91 3.866-.948-.4 0-1.823.474-2.625l7.403-12.91h-3.79l-6.05 10.47c-.114-.07-.227-.14-.332-.186l-.254.293c-2.733 3.17-5.395 5.688-7.073 5.688-.838 0-1.31-.582-.438-2.08l5.47-9.59c1.64-2.88.072-4.96-2.043-4.96-1.64 0-3.354.876-5.25 2.846l1.42-2.48h-3.8l-6.062 10.48c-.123-.08-.246-.154-.36-.204l-.255.294c-2.736 3.17-5.398 5.686-7.076 5.686-.84 0-1.32-.58-.44-2.08l6.12-10.72h-2.15c.145-1.603-1.496-3.83-3.976-3.83-2.04 0-4.888 1.607-6.49 4.38l-3.92 6.76c-.26-.235-.558-.417-.83-.49l-.256.293c-2.734 3.17-6.09 5.684-9.846 5.684-2.59 0-4.16-2.59-1.898-6.455l1.058-1.86c.694.107 1.387.18 2.15.18 4.05 0 8.645-2.08 11.636-7.294 1.06-1.86 1.53-3.61 1.53-5.104 0-3.43-2.22-5.653-5.03-5.653-2.08 0-4.56 1.46-6.27 4.45L58.91 55.49c-2.224-1.166-3.39-3.28-3.39-5.396 0-1.75.8-3.5 2.442-4.776l-1.24-2.22c-2.7 1.934-3.902 4.52-3.902 7.075 0 3.027 1.714 5.945 4.777 7.55l-1.13 1.97c-2.664 4.595-1.096 9.7 4.265 9.7 4.24 0 7.353-1.89 9.968-4.37-.826 2.38.374 4.37 3.06 4.37 1.53 0 3.427-.985 5.25-2.48.183 1.46 1.35 2.48 3.282 2.48 1.816 0 3.792-1.13 5.742-2.784l-1.4 2.42h3.83l5.8-10.1c5.797-7.26 8.387-6.31 6.746-3.5L98.09 64c-1.604 2.81-.474 5.397 2.59 5.397 2.04 0 4.28-1.425 6.463-3.423-.455 2.086.51 3.423 2.398 3.423 1.83 0 3.91-1.532 5.62-3.063l-2.08 3.574c-5.14 1.53-8.35 3.646-8.35 6.49 0 3.648 5.58 4.414 8.32-.254l2.92-4.996c3.17-.998 6.3-2.965 9.568-6.196-.523 5.297 6.534 6.505 10.787 1.126h.84c1.385 0 3.26-.523 4.95-1.455l-2.547 4.41h3.83l5.795-10.102c5.798-7.25 8.388-6.31 6.747-3.5L151 64c-1.603 2.81-.474 5.397 2.59 5.397 3.137 0 6.747-3.354 9.884-7.002-.256-.51-.912-1.094-1.423-1.313zM67.664 46.93c1.13-1.932 2.37-2.77 3.428-2.77 1.422 0 2.08.948 2.08 2.334 0 3.538-4.304 9.92-10.212 9.92h-.766l5.47-9.483zM81.02 61.74c-2.298 3.61-4.56 5.323-6.128 5.323-.838 0-1.312-.583-.438-2.08l5.288-9.226c2.042-3.537 6.09-2.625 4.23.803l-2.953 5.18zm28.85 13.783c-.803 1.423-2.08 1.204-2.08.184 0-.985.913-2.115 3.83-3.246l-1.75 3.07zm25.527-14.185h-.183c-1.24 0-2.225 1.02-2.225 2.262 0 .474.14.91.36 1.275l-.04.073c-1.79 3.063-6.13 2.48-3.87-1.46l2.88-4.995 1.82-3.1c2.664-4.522 6.31-2.735 4.013 1.204l-2.77 4.74zm114.56 1.058c-.22-.583-.874-1.167-1.42-1.313l-.257.293c-1.386 1.64-3.063 3.1-4.56 4.12 1.205-3.61.95-9.153 3.283-14.004l-2.845-1.532c-1.567 2.152-4.996 7.112-8.424 11.123.006.01.015.018.02.026l-.045-.03-.26.29c-2.74 3.17-5.4 5.69-7.08 5.69-.84 0-1.64-.84-1.64-2.56v-1.56c2.66.324 5.47-1.427 7.25-4.526l1.02-1.75c3.54-6.052-2.224-8.06-6.09-4.52l5.397-9.372h-3.794l-10.81 18.768c-.23-.194-.475-.363-.695-.46l-.255.295c-2.733 3.172-6.234 5.688-8.896 5.688-2.333 0-3.72-1.46-1.97-4.522l3.903-6.78c2.188-3.75 6.054-3.13 3.793.81l-.55.95h3.1l.55-.947c2.04-3.5.072-6.127-3.028-6.127-3.06 0-5.51 1.605-7.11 4.377l-3.735 6.402c-.08-.047-.16-.1-.234-.133l-.255.29c-2.734 3.17-5.396 5.688-7.074 5.688-.84 0-1.31-.582-.43-2.08l8.09-14.185h-3.795l-6.747 11.78c-2.882 2.626-5.106 4.085-5.835 3.757-.95-.4 0-1.822.474-2.624l7.404-12.91h-3.79l-7.36 12.75c-.82.746-1.66 1.413-2.45 1.95 1.203-3.61.948-9.152 3.28-14.003l-2.844-1.533c-1.57 2.15-10.32 13.75-13.75 17.76.33.474.876.95 1.423 1.313 2.15-2.48 9.37-11.78 10.72-13.567-1.5 3.938-.697 11.014-4.308 11.014-1.275 0-1.786-1.387-1.786-1.387l-2.37 1.24s.69 3.06 4.156 3.06c.367 0 .695-.036 1.06-.073.036 0 .073-.037.11-.037 1.925-.252 3.84-1.14 5.63-2.38-.013 1.546.92 2.49 2.508 2.49 2.08 0 4.412-1.894 6.235-3.645-.365 2.044.84 3.648 3.245 3.648 2.355 0 4.98-1.892 7.467-4.38.036 2.52 1.977 4.38 5.147 4.38 3.08 0 6.134-1.72 8.774-4.03l-2.11 3.664h3.83l4.34-7.55v3.026c0 3.246.62 4.888 3.682 4.888 3.136 0 6.746-3.35 9.883-7-.01-.01-.02-.02-.025-.033.017.01.03.03.048.04 2.15-2.48 4.05-5.142 5.39-6.93-1.495 3.94-.69 11.015-4.303 11.015-1.276 0-1.787-1.387-1.787-1.387l-2.37 1.24s.69 3.064 4.158 3.064c.365 0 .693-.034 1.06-.07.037 0 .073-.037.11-.037 3.865-.51 7.694-3.574 10.54-6.892zm-25.187-2.99l1.094-1.897c4.377-6.1 7.367-4.42 6.018-2.12l-1.823 3.13c-1.14 1.97-4.45 3.35-5.29.87zm25.04 5.578c-1.238 0-2.187.984-2.187 2.225s.948 2.18 2.188 2.18c1.24 0 2.23-.95 2.23-2.19s-.98-2.23-2.22-2.23zm.184-1.494h3.83l11.887-20.715h-3.79M5.75 6.9c0 .293-.057.587-.17.88-.112.293-.28.558-.506.795-.226.237-.502.428-.83.575-.326.147-.693.22-1.1.22-.45 0-.884-.084-1.3-.253-.418-.17-.773-.412-1.066-.728-.25-.3-.44-.65-.575-1.05C.067 6.93 0 6.5 0 6.05c0-.85.152-1.64.457-2.363.304-.722.738-1.364 1.302-1.928.24-.25.52-.48.84-.7.32-.21.62-.4.9-.54.28-.15.52-.27.72-.36.21-.08.33-.14.38-.16L5.95 1.99c-.25.09-.526.21-.83.355-.305.15-.59.33-.86.55-.274.216-.5.47-.68.76-.18.296-.28.635-.304 1.02.66 0 1.23.19 1.73.573s.75.937.75 1.658zm7.866 0c0 .293-.057.587-.17.88-.112.292-.28.557-.506.794-.226.237-.502.43-.83.575-.327.14-.693.22-1.1.22-.45 0-.884-.09-1.3-.26-.418-.17-.773-.41-1.066-.73-.248-.3-.44-.65-.575-1.05-.14-.41-.21-.84-.21-1.29 0-.856.15-1.646.45-2.368.3-.723.74-1.365 1.3-1.93.246-.25.53-.48.844-.693.314-.21.613-.39.895-.54.282-.144.524-.263.73-.353.203-.09.33-.146.372-.17l1.354 2c-.25.09-.524.21-.83.355-.304.144-.59.324-.862.54-.27.212-.495.47-.675.76-.18.292-.28.63-.304 1.014.654 0 1.23.19 1.725.574.5.38.747.936.747 1.657zm265.16 58.942c0-.294.057-.588.168-.88.113-.294.283-.558.508-.795.226-.237.502-.43.828-.575.328-.146.694-.22 1.1-.22.45 0 .886.085 1.303.253.418.17.772.412 1.065.73.25.292.44.642.575 1.047.135.406.203.834.203 1.286 0 .855-.152 1.645-.457 2.367-.31.722-.74 1.364-1.31 1.928-.25.248-.53.48-.85.693-.32.215-.62.395-.9.54-.28.147-.525.267-.73.356s-.325.146-.37.17l-1.353-1.996c.25-.09.522-.21.83-.355s.59-.32.86-.54c.27-.21.496-.47.676-.76.18-.29.28-.63.303-1.01-.653 0-1.23-.19-1.724-.57-.497-.38-.745-.933-.745-1.653zm-7.867 0c0-.294.05-.588.17-.88.11-.294.28-.558.5-.795s.5-.43.83-.575c.32-.146.69-.22 1.1-.22.45 0 .88.085 1.3.253.42.17.77.412 1.06.73.25.292.44.642.572 1.047.136.406.202.834.202 1.286 0 .855-.153 1.645-.458 2.367-.303.722-.737 1.364-1.3 1.928-.248.248-.53.48-.846.693s-.61.395-.893.54c-.283.147-.526.267-.73.356s-.327.146-.37.17l-1.356-1.996c.25-.09.524-.21.83-.355.3-.14.59-.32.86-.54.27-.21.496-.47.677-.76s.283-.63.306-1.01c-.654 0-1.23-.19-1.727-.57-.494-.38-.743-.933-.743-1.653z"/></svg>