<svg version="1" xmlns="http://www.w3.org/2000/svg" width="293.826" height="79.393" fill="#fff" viewBox="0 0 293.826 79.393"><path d="M33.42 17.06c7.657-2.59 8.24-12.18.692-12.18-2.08 0-4.56 1.458-6.272 4.448l-10.212 17.65c-.474.84-.948 1.533-1.458 2.152-2.626-3.61-1.86-9.007 1.823-11.378L16.46 15.82c-7.95 5.068-5.615 19.692 7.66 19.692 11.342 0 16.593-13.602 9.3-18.452zm-9.373 15.535c-2.26 0-4.048-.51-5.47-1.313.657-.766 1.313-1.714 1.896-2.7l6.382-11.05 1.02.11c8.9 1.86 5.362 14.953-3.828 14.953zM28.13 15.31l3.064-5.252c2.77-4.777 6.31-1.97 4.413 1.604-1.458 2.735-3.61 3.574-7.476 3.647z"/><path d="M65.5 29.32c-.63 2.25.572 4.077 3.145 4.077 1.532 0 3.428-.985 5.25-2.48.184 1.46 1.35 2.48 3.283 2.48 2.02 0 4.235-1.395 6.394-3.358-.42 2.04.54 3.35 2.41 3.35 2.08 0 4.413-1.897 6.236-3.648-.365 2.04.84 3.646 3.246 3.646 3.136 0 6.747-3.355 9.883-7-.025-.05-.07-.1-.1-.15 2.096-2.44 3.945-5.03 5.267-6.78-1.496 3.94-.693 11.014-4.304 11.014-1.276 0-1.787-1.387-1.787-1.387l-2.37 1.24s.692 3.06 4.156 3.06c.36 0 .69-.036 1.05-.072.036 0 .072-.037.11-.037 2.784-.37 5.55-2.065 7.94-4.225.058 2.495 1.995 4.333 5.145 4.333 4.303 0 8.57-3.356 11.707-7.003-.255-.51-.91-1.093-1.42-1.312l-.257.293c-2.733 3.175-6.234 5.69-8.896 5.69-2.334 0-3.72-1.46-1.97-4.52l.366-.656c2.443 1.02 7.04.547 9.883-4.376l.547-.948c2.043-3.5.074-6.128-3.026-6.128-3.062 0-5.506 1.605-7.11 4.376l-3.68 6.32c-.035-.01-.07-.036-.105-.045l-.255.292c-1.38 1.64-3.06 3.1-4.55 4.12 1.203-3.61.948-9.152 3.28-14.003l-2.843-1.533c-1.567 2.155-4.995 7.115-8.423 11.126.03.048.074.093.11.14l-.135.154c-2.737 3.17-5.4 5.69-7.077 5.69-.84 0-1.314-.584-.44-2.08l8.095-14.187h-3.794l-6.747 11.78c-2.88 2.626-5.106 4.084-5.836 3.756-.946-.4 0-1.824.476-2.626l7.402-12.91H91.97l-6.037 10.45c-.1-.06-.196-.123-.29-.162l-.253.292c-2.735 3.172-5.397 5.69-7.075 5.69-.833 0-1.31-.584-.433-2.08L84 18.26h-2.153c.146-1.605-1.495-3.83-3.975-3.83-2.042 0-4.887 1.605-6.49 4.376l-3.847 6.637c-.195-.152-.394-.286-.577-.365l-.255.292c-2.735 3.172-6.236 5.69-8.898 5.69-2.334 0-3.72-1.46-1.97-4.523l3.902-6.783c2.188-3.756 6.054-3.136 3.792.802l-.55.948h3.1l.54-.948c2.04-3.5.073-6.127-3.027-6.127-3.064 0-5.508 1.6-7.11 4.37l-3.77 6.464c-.12-.077-.238-.147-.35-.195l-.254.292c-2.736 3.17-6.237 5.688-8.9 5.688-2.333 0-3.72-1.46-1.97-4.52l.366-.656c2.442 1.02 7.04.546 9.882-4.377l.544-.95c2.042-3.5.073-6.126-3.027-6.126-3.064 0-5.508 1.61-7.11 4.38l-3.976 6.82c-2.37 4.05-.328 7.77 4.157 7.77 3.34 0 6.657-2.024 9.442-4.635-.1 2.647 1.864 4.635 5.14 4.635 3.097.005 6.174-1.736 8.826-4.07zm58.028-9.562c2.188-3.756 6.054-3.136 3.792.802l-.547.948c-1.823 3.1-4.267 3.027-5.69 2.516l2.445-4.266zm-54.19 9.227l5.287-9.227c2.042-3.538 6.09-2.626 4.23.802L75.9 25.74c-2.296 3.61-4.558 5.323-6.125 5.323-.84 0-1.313-.583-.438-2.078zm-24.185-9.227c2.188-3.756 6.054-3.136 3.792.802l-.547.948c-1.823 3.1-4.267 3.027-5.69 2.516l2.445-4.266zm128.584 13.64c4.304 0 8.57-3.356 11.706-7.003-.255-.51-.91-1.094-1.422-1.313l-.25.292c-2.73 3.172-6.232 5.69-8.9 5.69-2.33 0-3.72-1.46-1.97-4.523l.37-.65c2.443 1.02 7.038.55 9.883-4.374l.547-.95c2.04-3.5.072-6.125-3.028-6.125-3.064 0-5.508 1.605-7.11 4.376l-3.696 6.336c-.037-.02-.077-.05-.113-.063l-.254.294c-2.736 3.173-5.398 5.69-7.076 5.69-.84 0-1.315-.583-.44-2.08l5.47-9.59c1.64-2.88.073-4.96-2.04-4.96-1.644 0-3.394.91-5.29 2.88l6.054-10.54h-3.794l-10.695 18.56c-.148-.104-.297-.192-.434-.25l-.254.292c-2.735 3.174-5.397 5.69-7.075 5.69-.837 0-1.31-.582-.437-2.08l8.134-14.185h3.1l1.096-1.823h-3.136l3.574-6.2h-3.794l-3.574 6.2h-3.428l-1.094 1.824h3.464L140.2 28c-1.605 2.808-.475 5.397 2.588 5.397 1.885 0 3.94-1.216 5.962-2.975l-1.504 2.61h3.83l5.762-10.03c5.835-7.33 8.424-6.38 6.783-3.573L158.7 28c-1.604 2.808-.475 5.397 2.59 5.397 2.304 0 4.863-1.813 7.303-4.22.113 2.438 2.043 4.22 5.147 4.22zm3.063-13.64c2.188-3.756 6.054-3.136 3.793.802l-.547.948c-1.824 3.1-4.268 3.027-5.69 2.516l2.444-4.266zm111.956 5.325l-.256.292c-2.734 3.172-5.397 5.69-7.074 5.69-.84 0-1.313-.584-.438-2.08l12.837-22.21h-3.793l-5.58 9.63c-.656-1.06-1.896-1.97-3.464-1.97-2.043 0-4.888 1.604-6.492 4.375l-3.71 6.406c-.08-.047-.163-.1-.238-.133l-.256.292c-2.734 3.172-5.396 5.69-7.074 5.69-.84 0-1.313-.584-.438-2.08l5.47-9.59c1.642-2.882.073-4.96-2.042-4.96-1.642 0-3.355.874-5.252 2.844l1.423-2.48h-3.8l-6.06 10.48c-.125-.08-.248-.156-.36-.206l-.258.292c-2.734 3.17-5.397 5.69-7.074 5.69-.84 0-1.31-.585-.436-2.08l6.126-10.723h-2.15c.147-1.603-1.494-3.83-3.974-3.83-2.043 0-4.888 1.607-6.492 4.378l-3.667 6.33-.206.235c-2.734 3.175-5.397 5.69-7.074 5.69-.84 0-1.313-.58-.438-2.08l3.79-6.634c1.31-2.297.69-3.646-.55-5.14l-2.116-2.554c-.548-.694-.548-1.46.218-2.19l-1.97-2.15c-2.15 1.933-2.33 4.084-.982 5.835l.33.44c-1.68 2.37-3.94 5.58-6.42 8.496.074.11.163.217.26.324-3.127 3.594-5.78 5.92-8.765 7.19l4.812-8.24h-3.793l-.4.658c-2.006 3.534-4.304 6.05-7.26 6.05-2.587 0-3.06-2.59-.8-6.454l1.058-1.86c.692.108 1.386.182 2.15.182 13.494 0 20.022-18.053 8.134-18.053-2.078 0-4.558 1.46-6.27 4.45l-5.91 10.174c-2.224-1.17-3.39-3.28-3.39-5.4 0-1.75.802-3.5 2.442-4.776l-1.24-2.223c-2.698 1.933-3.9 4.522-3.9 7.075 0 3.028 1.713 5.945 4.776 7.55l-1.13 1.97c-2.663 4.594-2.19 9.7 3.172 9.7 1.604 0 2.954-.474 4.12-1.204L205.9 33.9c-5.14 1.568-8.313 3.646-8.313 6.49 0 3.648 5.58 4.414 8.314-.254l2.92-4.993c3.94-1.24 7.806-3.94 11.96-8.753-.06-.117-.14-.238-.232-.357 1.684-1.98 3.114-3.888 5.97-7.775l.51.62c.475.62.657 1.388.22 2.154L223.238 28c-1.606 2.808-.476 5.397 2.59 5.397 1.905 0 3.987-1.244 6.03-3.036-.043 1.75 1.15 3.04 3.31 3.04 1.533 0 3.43-.98 5.253-2.48.19 1.46 1.35 2.48 3.29 2.48 1.816 0 3.79-1.13 5.74-2.78l-1.4 2.42h3.83l5.8-10.102c5.8-7.256 8.387-6.31 6.746-3.5L259.5 28c-1.605 2.808-.476 5.397 2.588 5.397 2.016 0 4.226-1.388 6.38-3.346-.2 1.91 1.007 3.35 3.295 3.35 1.53 0 3.428-.98 5.25-2.48.184 1.46 1.35 2.48 3.283 2.48 3.137 0 6.747-3.35 9.883-7-.26-.51-.92-1.09-1.43-1.31zm-77.963-14.15c1.13-1.933 2.37-2.77 3.43-2.77 6.017 0 1.786 12.252-8.134 12.252h-.77l5.47-9.482zm-8.06 28.59c-.8 1.423-2.077 1.205-2.077.184 0-.985.875-2.115 3.793-3.246l-1.72 3.07zm39.694-13.784c-2.298 3.61-4.56 5.32-6.127 5.32-.84 0-1.312-.588-.438-2.08l5.288-9.23c2.042-3.54 6.09-2.627 4.23.8l-2.953 5.18zm36.7-.22c-2.297 3.75-4.63 5.54-6.235 5.54-.84 0-1.312-.588-.438-2.08l5.288-9.23c2.042-3.54 6.09-2.627 4.23.8h.036l-2.88 4.96zM162.05 61.08l-.254.293c-2.735 3.172-5.397 5.688-7.075 5.688-.83 0-1.31-.58-.43-2.08l5.47-9.59c1.64-2.88.074-4.96-2.04-4.96-1.64 0-3.354.88-5.25 2.85l1.42-2.48h-3.793l-6.115 10.57c-.163-.12-.33-.22-.482-.29l-.255.296c-1.71 1.86-3.83 2.77-5.723 2.808l3.573-6.16c2.297-3.975.18-7.73-3.392-7.73-2.915 0-5.176 1.167-7.365 4.96l-1.86 3.245-1.626 2.78c-.117-.076-.234-.146-.343-.193l-.253.294c-3.136 3.61-5.798 5.944-8.79 7.22l10.386-17.8h-3.79l-6.71 11.67c-2.918 2.7-5.18 4.194-5.91 3.866-.947-.4 0-1.823.475-2.625l7.403-12.91h-3.792l-6.05 10.47c-.114-.07-.227-.14-.332-.186l-.255.293c-2.734 3.172-5.396 5.688-7.074 5.688-.838 0-1.312-.583-.438-2.08l5.47-9.59c1.64-2.88.073-4.96-2.042-4.96-1.64 0-3.355.875-5.25 2.845l1.42-2.48H97.18l-6.062 10.48c-.123-.08-.246-.155-.36-.205l-.255.293c-2.734 3.17-5.396 5.687-7.074 5.687-.84 0-1.32-.582-.44-2.08l6.12-10.72h-2.15c.147-1.604-1.494-3.83-3.974-3.83-2.04 0-4.887 1.606-6.49 4.378l-3.92 6.76c-.258-.234-.557-.416-.83-.49l-.255.294c-2.732 3.17-6.09 5.687-9.844 5.687-2.59 0-4.16-2.59-1.898-6.455l1.058-1.86c.694.105 1.387.18 2.15.18 4.05 0 8.645-2.08 11.636-7.296 1.06-1.86 1.53-3.61 1.53-5.105 0-3.43-2.222-5.654-5.03-5.654-2.08 0-4.56 1.46-6.272 4.45L58.91 55.49c-2.224-1.166-3.39-3.28-3.39-5.396 0-1.75.8-3.5 2.442-4.776l-1.24-2.22c-2.7 1.934-3.902 4.52-3.902 7.075 0 3.027 1.714 5.945 4.777 7.55l-1.13 1.97c-2.664 4.595-1.096 9.7 4.265 9.7 4.24 0 7.353-1.89 9.968-4.37-.826 2.38.374 4.37 3.06 4.37 1.53 0 3.427-.985 5.25-2.48.183 1.46 1.35 2.48 3.282 2.48 1.816 0 3.792-1.13 5.742-2.784l-1.4 2.42h3.83l5.8-10.1c5.797-7.26 8.387-6.31 6.746-3.5L98.09 64c-1.604 2.81-.474 5.397 2.59 5.397 2.04 0 4.28-1.425 6.463-3.423-.455 2.086.51 3.423 2.398 3.423 1.83 0 3.91-1.532 5.62-3.063l-2.08 3.574c-5.14 1.53-8.35 3.646-8.35 6.49 0 3.648 5.58 4.414 8.32-.254l2.917-4.996c3.17-.998 6.298-2.965 9.564-6.196-.523 5.297 6.534 6.505 10.787 1.126h.84c1.385 0 3.26-.523 4.95-1.455l-2.547 4.41h3.83l5.795-10.102c5.797-7.25 8.387-6.31 6.746-3.5L151 64c-1.603 2.81-.474 5.397 2.59 5.397 3.137 0 6.747-3.354 9.884-7.002-.256-.51-.912-1.094-1.423-1.313zM67.664 46.93c1.13-1.932 2.37-2.77 3.428-2.77 1.422 0 2.08.948 2.08 2.334 0 3.538-4.304 9.92-10.212 9.92h-.766l5.47-9.483zM81.02 61.74c-2.298 3.61-4.56 5.323-6.128 5.323-.838 0-1.312-.583-.438-2.08l5.288-9.226c2.042-3.537 6.09-2.625 4.23.803l-2.953 5.18zm28.85 13.783c-.803 1.423-2.08 1.204-2.08.184 0-.985.913-2.115 3.83-3.246l-1.75 3.07zm25.527-14.185h-.183c-1.24 0-2.225 1.02-2.225 2.262 0 .474.14.91.36 1.275l-.04.073c-1.787 3.063-6.127 2.48-3.866-1.46l2.88-4.995 1.824-3.1c2.663-4.522 6.31-2.735 4.012 1.204l-2.77 4.74zm114.56 1.058c-.22-.583-.874-1.167-1.42-1.313l-.257.293c-1.386 1.64-3.063 3.1-4.56 4.12 1.205-3.61.95-9.153 3.283-14.004l-2.845-1.532c-1.567 2.152-4.996 7.112-8.424 11.123.006.01.015.018.02.026l-.045-.03-.26.29c-2.74 3.17-5.4 5.69-7.08 5.69-.84 0-1.64-.84-1.64-2.556V62.94c2.662.328 5.47-1.423 7.257-4.522l1.02-1.75c3.54-6.052-2.224-8.06-6.09-4.52l5.397-9.372h-3.794l-10.81 18.768c-.23-.195-.474-.364-.694-.46l-.255.294c-2.733 3.172-6.234 5.688-8.896 5.688-2.334 0-3.72-1.46-1.97-4.522l3.902-6.783c2.188-3.75 6.054-3.13 3.793.81l-.548.95h3.1l.548-.948c2.042-3.5.073-6.127-3.027-6.127-3.06 0-5.506 1.605-7.11 4.377l-3.732 6.402c-.08-.047-.16-.1-.234-.133l-.256.29c-2.735 3.17-5.397 5.687-7.075 5.687-.84 0-1.31-.583-.432-2.08l8.09-14.186h-3.794l-6.747 11.78c-2.882 2.626-5.106 4.085-5.835 3.757-.95-.4 0-1.823.473-2.625l7.404-12.91h-3.79l-7.36 12.75c-.82.746-1.66 1.413-2.45 1.95 1.202-3.61.947-9.152 3.28-14.003l-2.845-1.533c-1.568 2.153-10.32 13.75-13.75 17.76.33.476.877.95 1.424 1.315 2.15-2.48 9.37-11.78 10.72-13.567-1.496 3.938-.694 11.014-4.305 11.014-1.276 0-1.787-1.388-1.787-1.388l-2.37 1.24s.69 3.06 4.154 3.06c.366 0 .694-.036 1.06-.073.035 0 .072-.037.11-.037 1.924-.252 3.84-1.14 5.63-2.38-.014 1.546.92 2.49 2.507 2.49 2.08 0 4.413-1.894 6.236-3.645-.364 2.044.84 3.648 3.246 3.648 2.356 0 4.98-1.892 7.468-4.38.037 2.52 1.978 4.38 5.148 4.38 3.08 0 6.135-1.72 8.775-4.03L215.4 69.04h3.83l4.34-7.55v3.026c0 3.246.62 4.888 3.683 4.888 3.136 0 6.746-3.35 9.883-7-.008-.01-.02-.02-.024-.033.016.01.03.025.047.036 2.15-2.48 4.05-5.142 5.394-6.93-1.496 3.94-.693 11.015-4.304 11.015-1.275 0-1.786-1.387-1.786-1.387l-2.37 1.24s.69 3.063 4.156 3.063c.365 0 .693-.034 1.06-.07.037 0 .073-.037.11-.037 3.865-.51 7.694-3.575 10.54-6.893zm-25.187-2.99l1.094-1.897c4.377-6.1 7.367-4.42 6.018-2.12l-1.823 3.132c-1.14 1.97-4.45 3.354-5.29.874zm25.04 5.578c-1.238 0-2.187.984-2.187 2.225s.948 2.18 2.188 2.18c1.24 0 2.23-.95 2.23-2.19s-.98-2.225-2.22-2.225zm.184-1.494h3.83l11.887-20.715h-3.79M5.75 6.9c0 .293-.057.587-.17.88-.112.293-.28.558-.506.795-.226.237-.502.428-.83.575-.326.147-.693.22-1.1.22-.45 0-.884-.084-1.3-.253-.418-.17-.773-.412-1.066-.728-.25-.3-.44-.65-.575-1.05C.067 6.93 0 6.5 0 6.05c0-.85.152-1.64.457-2.363.304-.722.738-1.364 1.302-1.928.24-.25.52-.48.84-.7.32-.21.62-.396.9-.54.28-.146.52-.266.722-.356C4.43.08 4.552.02 4.6 0l1.353 1.996c-.25.09-.524.21-.83.355-.303.15-.59.33-.86.55-.272.214-.497.468-.678.76-.18.294-.282.633-.304 1.016.66 0 1.23.19 1.73.575s.748.936.748 1.657zm7.866 0c0 .293-.057.587-.17.88-.112.292-.28.557-.506.794-.226.237-.502.43-.83.575-.327.14-.693.22-1.1.22-.45 0-.884-.09-1.3-.26-.418-.17-.773-.41-1.066-.73-.248-.293-.44-.643-.575-1.05-.14-.403-.21-.833-.21-1.283 0-.856.15-1.646.454-2.368.304-.723.74-1.365 1.302-1.93.247-.25.53-.48.845-.693.315-.21.614-.39.896-.54.282-.144.524-.263.728-.353.204-.09.328-.146.373-.17L13.81 1.99c-.25.09-.524.21-.83.356-.304.144-.59.324-.862.54-.27.212-.495.47-.675.76-.18.292-.28.63-.305 1.014.654 0 1.23.19 1.725.575.497.38.745.934.745 1.655zm265.16 58.942c0-.294.057-.588.168-.88.113-.294.283-.558.508-.795.226-.237.502-.43.828-.575.328-.146.694-.22 1.1-.22.45 0 .886.085 1.303.253.418.17.772.412 1.065.73.25.292.44.642.575 1.047.135.406.203.834.203 1.286 0 .855-.152 1.645-.457 2.367-.31.722-.74 1.364-1.31 1.928-.25.248-.53.48-.848.693-.315.215-.614.395-.897.54-.28.147-.523.267-.727.356s-.326.146-.37.17l-1.354-1.996c.25-.09.522-.21.83-.355s.59-.32.86-.54c.27-.21.496-.47.676-.76.18-.29.28-.63.304-1.01-.653 0-1.23-.19-1.724-.574-.496-.383-.744-.936-.744-1.656zm-7.867 0c0-.294.05-.588.17-.88.11-.294.28-.558.5-.795s.5-.43.83-.575c.324-.146.69-.22 1.1-.22.45 0 .882.085 1.3.253.42.17.77.412 1.064.73.25.292.44.642.575 1.047.136.406.202.834.202 1.286 0 .855-.152 1.645-.457 2.367-.302.722-.736 1.364-1.3 1.928-.247.248-.53.48-.845.693s-.612.395-.894.54c-.284.147-.527.267-.73.356s-.328.146-.37.17l-1.357-1.996c.25-.09.522-.21.83-.355.3-.14.59-.32.86-.54.27-.21.494-.47.675-.76s.284-.63.307-1.01c-.653 0-1.23-.19-1.726-.574-.494-.383-.743-.936-.743-1.656z"/></svg>