<svg version="1" xmlns="http://www.w3.org/2000/svg" width="255.917" height="28.91" fill="#766357" viewBox="0 0 255.917 28.91"><path d="M64 14.454l-.203.23c-1.353 1.468-3.023 2.188-4.52 2.217l2.82-4.86c1.815-3.14.145-6.1-2.677-6.1-2.304 0-4.09.92-5.816 3.92l-1.468 2.56-1.227 2.1-.16.18c-2.16 2.505-4.26 4.49-5.59 4.49-.67 0-1.04-.46-.35-1.64l6.42-11.2h2.45l.86-1.44h-2.47L54.9 0h-2.995l-2.822 4.895h-2.707l-.864 1.44h2.735l-6.02 10.423c-1.27 2.217-.38 4.262 2.04 4.262 1.74 0 3.66-1.31 5.51-3.084-.005 3.816 5.3 4.56 8.54.463h.66c1.786 0 4.608-1.1 6.134-2.91-.2-.41-.72-.87-1.12-1.04zm-6.393.202h-.144c-.98 0-1.756.806-1.756 1.786 0 .373.115.72.288 1.008l-.03.057c-1.41 2.42-4.836 1.958-3.05-1.15l2.273-3.946 1.44-2.44c2.102-3.57 4.98-2.16 3.167.95l-2.188 3.74zm47.848-.202l-.202.23c-2.16 2.505-4.924 4.49-7.025 4.49-1.843 0-2.937-1.15-1.555-3.57l.288-.518c1.93.806 5.56.432 7.81-3.455l.43-.74c1.61-2.76.06-4.83-2.39-4.83-2.42 0-4.35 1.268-5.61 3.456l-2.91 4.98-.17.198c-2.16 2.506-4.26 4.49-5.583 4.49-.662 0-1.037-.46-.346-1.64l4.32-7.57c1.293-2.28.055-3.92-1.617-3.92-1.294 0-2.68.72-4.174 2.274L91.49 0h-2.995l-8.354 14.492-.168.192c-2.16 2.505-4.26 4.49-5.586 4.49-.67 0-1.04-.46-.35-1.64l6.42-11.2h2.45l.86-1.44H81.3L84.123 0h-2.995l-2.822 4.895H75.6l-.864 1.44h2.735l-6.01 10.423c-1.26 2.217-.37 4.262 2.05 4.262 1.217 0 2.52-.64 3.82-1.627l-.77 1.338h3.027l4.55-7.91c4.608-5.79 6.65-5.04 5.356-2.82l-3.89 6.77c-1.267 2.22-.374 4.26 2.044 4.26 1.78 0 3.755-1.37 5.645-3.212.144 1.865 1.653 3.217 4.054 3.217 3.395 0 6.764-2.645 9.24-5.525-.2-.405-.716-.865-1.12-1.038zm-5.7-4.204c1.727-2.965 4.78-2.476 2.994.634l-.44.75c-1.44 2.446-3.37 2.39-4.49 1.986l1.93-3.37zm114.87 4.204l-.2.23c-1.097 1.295-2.42 2.447-3.6 3.253.95-2.85.747-7.227 2.59-11.056l-2.245-1.2c-1.24 1.7-3.95 5.62-6.658 8.79l-.2.23c-2.16 2.505-4.26 4.49-5.586 4.49-.66 0-1.036-.46-.345-1.64l6.4-11.2h-2.992l-5.33 9.3c-2.272 2.07-4.03 3.224-4.604 2.964-.75-.316 0-1.44.373-2.072l5.844-10.19h-2.994l-4.696 8.124-.2.227c-1.355 1.468-3.024 2.188-4.52 2.217l2.82-4.865c1.813-3.14.144-6.102-2.68-6.102-2.305 0-4.09.924-5.817 3.92l-1.47 2.562-1.226 2.097-.156.177c-2.16 2.51-4.92 4.49-7.02 4.49-1.84 0-2.936-1.15-1.553-3.57l.29-.515c1.93.807 5.557.43 7.803-3.454l.43-.75c1.612-2.763.06-4.836-2.39-4.836-2.42 0-4.348 1.265-5.615 3.453l-2.904 4.98-.174.2c-2.474 2.85-4.604 4.69-6.966 5.7l6.71-11.46h-1.76c0-1.238-1.267-2.88-3.138-2.88-1.61 0-3.854 1.268-5.122 3.456l-2.87 4.956-.005-.004-.2.23c-2.16 2.506-4.262 4.49-5.586 4.49-.66 0-1.038-.46-.348-1.64l2.995-5.24c1.035-1.814.546-2.88-.434-4.06l-1.67-2.02c-.43-.55-.43-1.154.175-1.73l-1.557-1.7c-1.7 1.527-1.842 3.226-.776 4.61l.26.344c-1.323 1.87-3.11 4.403-5.066 6.71l-.2.23c-1.354 1.465-3.023 2.185-4.52 2.214l2.82-4.87c1.814-3.138.145-6.104-2.68-6.104-2.302 0-4.09.92-5.814 3.92l-1.47 2.56-1.228 2.1-.15.176c-2.474 2.852-4.604 4.693-6.965 5.7l6.71-11.458h-1.757c0-1.24-1.268-2.88-3.14-2.88-1.612 0-3.858 1.266-5.125 3.454l-4.203 7.256c-1.265 2.216-.37 4.26 2.046 4.26.836 0 1.844-.374 2.85-1.007l-.833 1.41c-4.03 1.238-6.567 2.88-6.567 5.125 0 2.88 4.406 3.485 6.566-.2l2.275-3.945c2.395-.748 4.74-2.157 7.18-4.48-.023 3.83 5.29 4.582 8.54.48h.66c1.785 0 4.607-1.097 6.13-2.91 1.44-1.67 2.56-3.17 4.95-6.42l.406.49c.374.49.52 1.092.173 1.7l-3.17 5.5c-1.27 2.214-.38 4.26 2.04 4.26 1.517 0 3.175-.998 4.8-2.43-.05 1.39.88 2.43 2.597 2.43.837 0 1.845-.376 2.85-1.01l-.832 1.41c-4.034 1.233-6.57 2.873-6.57 5.12 0 2.88 4.406 3.484 6.565-.2l2.273-3.946c2.44-.76 4.83-2.21 7.316-4.613.13 1.878 1.644 3.24 4.054 3.24 2.44 0 4.86-1.368 6.95-3.2-.12 3.92 5.267 4.72 8.54.58h.664c.938 0 2.158-.31 3.33-.858-.806 2.08-.064 3.478 1.65 3.478 1.64 0 3.48-1.498 4.92-2.88-.29 1.612.66 2.88 2.56 2.88 2.475 0 5.325-2.65 7.8-5.53 1.7-1.958 3.196-4.06 4.26-5.47-1.18 3.11-.546 8.696-3.396 8.696-1.01 0-1.41-1.093-1.41-1.093l-1.874.98s.545 2.42 3.28 2.42c.287 0 .547-.03.834-.06.03 0 .06-.03.09-.03 3.05-.402 6.073-2.82 8.32-5.44-.175-.46-.694-.92-1.125-1.037zM171.64 10.25c1.73-2.965 4.78-2.476 2.995.634l-.432.75c-1.44 2.446-3.37 2.39-4.492 1.986l1.93-3.37zm-57.175 15.605c-.634 1.123-1.64.95-1.64.145 0-.777.72-1.67 2.993-2.562l-1.353 2.417zm1.382-6.68c-.662 0-1.037-.46-.345-1.64l4.175-7.285c1.612-2.793 4.81-2.073 3.34.634l-2.274 3.973c-1.815 2.91-3.63 4.32-4.896 4.32zm18.397-4.52h-.145c-.98 0-1.76.807-1.76 1.787 0 .373.11.72.29 1.008l-.03.057c-1.41 2.42-4.84 1.958-3.05-1.15l2.27-3.946 1.44-2.44c2.1-3.57 4.98-2.16 3.16.95l-2.19 3.74zm18.827 11.2c-.63 1.123-1.64.95-1.64.145 0-.777.72-1.67 3-2.562l-1.35 2.417zm1.39-6.68c-.66 0-1.03-.46-.34-1.64l4.18-7.285c1.61-2.793 4.807-2.073 3.34.634l-2.276 3.973c-1.814 2.91-3.63 4.32-4.895 4.32zm29.54-4.52h-.14c-.98 0-1.753.807-1.753 1.787 0 .373.116.72.29 1.008l-.03.057c-1.41 2.42-4.837 1.958-3.052-1.15l2.277-3.946 1.44-2.44c2.103-3.57 4.98-2.16 3.168.95l-2.2 3.74zM0 11.275h28.917v1.958H0zm227 0h28.918v1.958H227z"/></svg>