<svg version="1" xmlns="http://www.w3.org/2000/svg" width="255.917" height="28.91" fill="#766357" viewBox="0 0 255.917 28.91"><path d="M64 14.454l-.203.23c-1.353 1.468-3.023 2.188-4.52 2.217l2.82-4.86c1.815-3.14.145-6.1-2.677-6.1-2.304 0-4.09.92-5.816 3.916l-1.468 2.56-1.227 2.1-.16.176c-2.16 2.505-4.26 4.49-5.59 4.49-.662 0-1.037-.46-.345-1.64l6.42-11.2h2.45l.862-1.44h-2.47L54.9 0h-2.995l-2.822 4.895h-2.707l-.864 1.44h2.735l-6.02 10.423c-1.27 2.217-.38 4.262 2.04 4.262 1.74 0 3.66-1.31 5.51-3.084-.005 3.816 5.3 4.56 8.54.463h.66c1.786 0 4.608-1.1 6.134-2.91-.2-.41-.72-.87-1.12-1.04zm-6.393.202h-.144c-.98 0-1.756.806-1.756 1.786 0 .373.115.72.288 1.008l-.03.057c-1.41 2.42-4.836 1.958-3.05-1.15l2.273-3.946 1.44-2.44c2.102-3.57 4.98-2.16 3.167.95l-2.188 3.74zm47.848-.202l-.202.23c-2.16 2.505-4.924 4.49-7.025 4.49-1.843 0-2.937-1.15-1.555-3.57l.288-.518c1.93.806 5.56.432 7.81-3.455l.43-.74c1.61-2.764.06-4.837-2.39-4.837-2.42 0-4.35 1.267-5.612 3.455L94.29 14.49l-.174.197c-2.16 2.505-4.26 4.49-5.586 4.49-.663 0-1.038-.46-.347-1.64l4.32-7.57c1.295-2.276.058-3.917-1.613-3.917-1.296 0-2.68.72-4.176 2.273L91.492 0h-2.995l-8.354 14.492-.168.192c-2.16 2.505-4.26 4.49-5.586 4.49-.67 0-1.04-.46-.35-1.64l6.42-11.2h2.45l.86-1.44H81.3L84.123 0h-2.995l-2.822 4.895H75.6l-.864 1.44h2.735l-6.01 10.423c-1.265 2.217-.372 4.262 2.046 4.262 1.213 0 2.517-.64 3.82-1.627l-.77 1.338h3.023l4.55-7.91c4.607-5.79 6.65-5.04 5.355-2.82l-3.89 6.764c-1.267 2.217-.374 4.26 2.044 4.26 1.78 0 3.756-1.373 5.646-3.215.144 1.864 1.653 3.216 4.054 3.216 3.396 0 6.765-2.644 9.242-5.524-.2-.404-.717-.864-1.12-1.037zm-5.7-4.204c1.727-2.965 4.78-2.476 2.994.634l-.44.75c-1.44 2.446-3.37 2.39-4.49 1.986l1.93-3.37zm114.87 4.204l-.2.23c-1.097 1.295-2.42 2.447-3.6 3.253.95-2.85.747-7.227 2.59-11.056l-2.245-1.2c-1.24 1.7-3.95 5.616-6.658 8.783l-.2.23c-2.16 2.504-4.26 4.49-5.586 4.49-.66 0-1.036-.46-.345-1.64l6.395-11.2h-2.995l-5.33 9.3c-2.273 2.07-4.03 3.223-4.605 2.963-.75-.316 0-1.44.373-2.072l5.844-10.19h-2.994l-4.695 8.123-.197.227c-1.354 1.467-3.023 2.187-4.52 2.216l2.82-4.866c1.814-3.14.145-6.103-2.678-6.103-2.304 0-4.09.924-5.816 3.92l-1.47 2.562-1.226 2.097-.156.177c-2.16 2.506-4.922 4.49-7.023 4.49-1.842 0-2.937-1.15-1.554-3.57l.29-.517c1.93.805 5.557.43 7.803-3.456l.43-.748c1.613-2.765.06-4.838-2.39-4.838-2.42 0-4.347 1.266-5.614 3.454l-2.904 4.984-.174.2c-2.474 2.85-4.604 4.69-6.966 5.7l6.71-11.46h-1.758c0-1.238-1.267-2.88-3.138-2.88-1.612 0-3.858 1.268-5.126 3.456l-2.87 4.957-.006-.003-.2.23c-2.16 2.506-4.263 4.49-5.587 4.49-.66 0-1.035-.46-.345-1.64l2.996-5.24c1.036-1.814.547-2.88-.433-4.06L147.6 6.23c-.43-.55-.43-1.154.174-1.73l-1.557-1.7c-1.7 1.527-1.843 3.226-.777 4.61l.26.344c-1.324 1.87-3.11 4.404-5.067 6.71l-.2.23c-1.355 1.466-3.024 2.186-4.52 2.215l2.82-4.866c1.813-3.137.144-6.103-2.68-6.103-2.303 0-4.09.92-5.815 3.92l-1.47 2.56-1.227 2.1-.15.177c-2.477 2.852-4.607 4.693-6.968 5.7l6.71-11.458h-1.757c0-1.24-1.268-2.88-3.14-2.88-1.612 0-3.858 1.267-5.125 3.455l-4.204 7.257c-1.264 2.216-.37 4.26 2.047 4.26.835 0 1.843-.374 2.85-1.007l-.834 1.41c-4.03 1.238-6.565 2.88-6.565 5.125 0 2.88 4.406 3.485 6.566-.2l2.275-3.945c2.395-.746 4.742-2.155 7.18-4.48-.023 3.83 5.292 4.584 8.54.48h.66c1.785 0 4.607-1.095 6.133-2.91 1.44-1.67 2.56-3.167 4.95-6.42l.404.49c.373.49.52 1.094.172 1.7l-3.168 5.5c-1.27 2.216-.377 4.26 2.042 4.26 1.518 0 3.176-.996 4.802-2.43-.05 1.39.88 2.43 2.596 2.43.835 0 1.843-.374 2.85-1.007l-.834 1.41c-4.034 1.232-6.57 2.872-6.57 5.12 0 2.88 4.406 3.483 6.565-.2l2.275-3.947c2.44-.76 4.83-2.21 7.315-4.613.133 1.876 1.646 3.237 4.056 3.237 2.44 0 4.86-1.366 6.95-3.2-.12 3.92 5.266 4.72 8.54.58h.663c.938 0 2.158-.31 3.33-.856-.806 2.08-.064 3.477 1.65 3.477 1.64 0 3.482-1.498 4.922-2.88-.29 1.612.66 2.88 2.56 2.88 2.475 0 5.325-2.65 7.802-5.53 1.697-1.958 3.194-4.06 4.26-5.47-1.18 3.11-.548 8.696-3.398 8.696-1.01 0-1.41-1.093-1.41-1.093l-1.873.98s.546 2.42 3.28 2.42c.288 0 .548-.03.835-.06.03 0 .06-.03.09-.03 3.05-.403 6.072-2.82 8.32-5.442-.176-.46-.695-.92-1.126-1.037zM171.64 10.25c1.73-2.965 4.78-2.476 2.995.634l-.432.75c-1.44 2.446-3.37 2.39-4.492 1.986l1.93-3.37zm-57.175 15.605c-.634 1.123-1.64.95-1.64.145 0-.777.72-1.67 2.993-2.562l-1.353 2.417zm1.382-6.68c-.662 0-1.037-.46-.345-1.64l4.175-7.285c1.612-2.793 4.81-2.073 3.34.634l-2.274 3.973c-1.815 2.91-3.63 4.32-4.896 4.32zm18.397-4.52h-.145c-.98 0-1.76.807-1.76 1.787 0 .373.11.72.29 1.008l-.03.057c-1.41 2.42-4.84 1.958-3.05-1.15l2.27-3.946 1.44-2.44c2.1-3.57 4.98-2.16 3.164.95l-2.186 3.74zm18.827 11.2c-.63 1.123-1.64.95-1.64.145 0-.777.72-1.67 3-2.562l-1.35 2.417zm1.39-6.68c-.66 0-1.035-.46-.345-1.64l4.176-7.285c1.61-2.793 4.808-2.073 3.34.634l-2.275 3.973c-1.814 2.91-3.63 4.32-4.895 4.32zm29.54-4.52h-.145c-.98 0-1.756.807-1.756 1.787 0 .373.115.72.29 1.008l-.03.057c-1.41 2.42-4.838 1.958-3.053-1.15l2.276-3.946 1.44-2.44c2.103-3.57 4.98-2.16 3.168.95L184 14.66zM0 11.275h28.917v1.958H0zm227 0h28.918v1.958H227z"/></svg>